<?xml version="1.0" encoding="UTF-8"?>
<svg id="Calque_1" xmlns="http://www.w3.org/2000/svg" version="1.1" viewBox="0 0 1280.57 602.85">
  <!-- Generator: Adobe Illustrator 29.1.0, SVG Export Plug-In . SVG Version: 2.1.0 Build 142)  -->
  <defs>
    <style>
      .st0 {
        fill: #7a57ff;
      }

      .st1 {
        fill: #c869ff;
      }

      .st2 {
        fill: #248bff;
      }
    </style>
  </defs>
  <path id="Baseline" d="M935.91,412.99c5.23,0,8.57,3.78,8.76,8.38h-18.85c1.26-5.48,4.92-8.38,10.09-8.38M950.79,436.19l-3.97-3.09c-2.08,2.84-5.48,4.73-9.52,4.73-7.12,0-11.91-5.11-11.91-12.11v-.13h24.33c.19-.88.38-2.14.38-3.4,0-7.94-5.61-13.8-14.25-13.8-9.83,0-16.01,7.5-16.01,17.15s6.62,17.15,17.33,17.15c5.93,0,10.65-2.52,13.62-6.49M899.1,441.42h5.36v-21.56c1.96-3.21,4.67-5.36,8.83-5.36,1.26,0,2.21.19,3.15.44v-5.55c-.76-.25-1.7-.38-2.71-.38-4.03,0-6.93,1.83-9.27,4.6v-3.97h-5.36v31.77ZM860.51,425.54c0-6.74,4.54-12.1,11.28-12.1,4.35,0,8.13,2.08,10.65,5.93v12.36c-2.46,3.78-6.24,5.93-10.65,5.93-6.74,0-11.28-5.36-11.28-12.11M854.84,425.54c0,9.27,6.37,17.15,16.33,17.15,4.6,0,8.38-1.7,11.28-4.79v3.53h5.36v-47.28h-5.36v19.04c-2.9-3.09-6.68-4.79-11.28-4.79-9.96,0-16.33,7.88-16.33,17.15M818.41,441.42h5.36v-22c2.02-3.34,4.92-5.99,9.52-5.99,4.92,0,8.07,3.28,8.07,8.95v19.04h5.42v-19.23c0-9.01-5.29-13.8-12.42-13.8-4.73,0-8.01,2.02-10.59,4.85v-3.59h-5.36v31.77ZM795.15,412.99c5.23,0,8.57,3.78,8.76,8.38h-18.85c1.26-5.48,4.92-8.38,10.09-8.38M810.02,436.19l-3.97-3.09c-2.08,2.84-5.49,4.73-9.52,4.73-7.12,0-11.91-5.11-11.91-12.11v-.13h24.33c.19-.88.38-2.14.38-3.4,0-7.94-5.61-13.8-14.25-13.8-9.83,0-16.01,7.5-16.01,17.15s6.62,17.15,17.34,17.15c5.92,0,10.65-2.52,13.62-6.49M758.33,441.42h5.36v-21.56c1.95-3.21,4.66-5.36,8.83-5.36,1.26,0,2.21.19,3.15.44v-5.55c-.76-.25-1.7-.38-2.71-.38-4.04,0-6.94,1.83-9.27,4.6v-3.97h-5.36v31.77ZM722.08,431.59v-12.1c2.46-3.91,6.24-6.05,10.65-6.05,6.75,0,11.35,5.36,11.35,12.1s-4.6,12.11-11.35,12.11c-4.41,0-8.2-2.15-10.65-6.05M716.73,456.93h5.36v-19.04c2.9,3.09,6.68,4.79,11.28,4.79,9.96,0,16.33-7.88,16.33-17.15s-6.37-17.15-16.33-17.15c-4.6,0-8.38,1.7-11.28,4.79v-3.53h-5.36v47.28ZM657.15,441.42h5.36v-22c1.83-3.28,4.54-5.99,8.89-5.99,4.6,0,7.44,3.03,7.44,8.32v19.67h5.42v-19.86c0-.69-.06-1.39-.13-2.08,2.14-3.72,4.92-6.05,8.95-6.05,4.54,0,7.5,3.03,7.5,8.32v19.67h5.36v-19.86c0-8.64-4.98-13.17-11.79-13.17-5.23,0-8.7,2.77-11.22,6.37-1.96-4.22-5.8-6.37-10.46-6.37-4.41,0-7.57,1.95-9.96,4.73v-3.47h-5.36v31.77ZM631.37,437.64c-6.81,0-11.66-5.49-11.66-12.11s4.85-12.1,11.66-12.1,11.47,5.49,11.47,12.1-4.86,12.11-11.47,12.11M631.31,408.39c-10.28,0-17.21,7.88-17.21,17.15s6.93,17.15,17.21,17.15,17.21-7.88,17.21-17.15-7-17.15-17.21-17.15M597.39,437.64c-6.87,0-11.72-5.3-11.72-12.11s4.86-12.1,11.66-12.1c3.91,0,7.12,1.89,9.08,4.73l4.29-3.28c-2.96-3.91-7.63-6.49-13.36-6.49-10.53,0-17.27,7.88-17.27,17.15s6.74,17.15,17.27,17.15c5.8,0,10.4-2.52,13.36-6.49l-4.29-3.28c-1.95,2.84-5.11,4.73-9.01,4.73M540.72,441.42h5.36v-21.56c1.95-3.21,4.66-5.36,8.83-5.36,1.26,0,2.21.19,3.15.44v-5.55c-.76-.25-1.7-.38-2.71-.38-4.04,0-6.93,1.83-9.27,4.6v-3.97h-5.36v31.77ZM524.71,427.81c0,6.24-3.34,9.83-8.64,9.83s-8.76-3.59-8.76-9.83v-18.16h-5.36v17.97c0,9.52,5.49,15.07,14.06,15.07s14.12-5.55,14.12-15.07v-17.97h-5.42v18.16ZM476.87,437.64c-6.81,0-11.66-5.49-11.66-12.11s4.85-12.1,11.66-12.1,11.47,5.49,11.47,12.1-4.86,12.11-11.47,12.11M476.8,408.39c-10.28,0-17.21,7.88-17.21,17.15s6.93,17.15,17.21,17.15,17.21-7.88,17.21-17.15-7-17.15-17.21-17.15M425.74,431.59v-12.1c2.46-3.91,6.24-6.05,10.65-6.05,6.75,0,11.35,5.36,11.35,12.1s-4.6,12.11-11.35,12.11c-4.41,0-8.19-2.15-10.65-6.05M420.38,456.93h5.36v-19.04c2.9,3.09,6.68,4.79,11.29,4.79,9.96,0,16.33-7.88,16.33-17.15s-6.37-17.15-16.33-17.15c-4.6,0-8.38,1.7-11.29,4.79v-3.53h-5.36v47.28ZM378.34,441.42h5.36v-21.56c1.95-3.21,4.67-5.36,8.83-5.36,1.26,0,2.21.19,3.15.44v-5.55c-.76-.25-1.7-.38-2.71-.38-4.03,0-6.94,1.83-9.27,4.6v-3.97h-5.36v31.77ZM355.08,412.99c5.23,0,8.57,3.78,8.76,8.38h-18.85c1.26-5.48,4.92-8.38,10.09-8.38M369.95,436.19l-3.97-3.09c-2.08,2.84-5.49,4.73-9.52,4.73-7.12,0-11.91-5.11-11.91-12.11v-.13h24.33c.19-.88.38-2.14.38-3.4,0-7.94-5.61-13.8-14.25-13.8-9.83,0-16.01,7.5-16.01,17.15s6.62,17.15,17.34,17.15c5.92,0,10.65-2.52,13.62-6.49M318.26,441.42h5.36v-21.56c1.95-3.21,4.66-5.36,8.83-5.36,1.26,0,2.21.19,3.15.44v-5.55c-.76-.25-1.7-.38-2.71-.38-4.04,0-6.94,1.83-9.27,4.6v-3.97h-5.36v31.77ZM302.25,427.81c0,6.24-3.34,9.83-8.64,9.83s-8.76-3.59-8.76-9.83v-18.16h-5.36v17.97c0,9.52,5.48,15.07,14.06,15.07s14.12-5.55,14.12-15.07v-17.97h-5.42v18.16ZM248.86,437.08c2.9,3.59,6.87,5.61,11.91,5.61,5.93,0,10.65-3.72,10.72-9.65,0-11.09-15.57-8.57-15.57-15.82,0-2.59,1.76-4.35,5.04-4.35,2.9,0,5.23,1.45,7,3.97l3.72-3.22c-2.21-3.09-6.11-5.23-10.78-5.23-5.99,0-10.21,3.84-10.21,8.95,0,11.41,15.57,8.76,15.57,15.95,0,2.77-2.02,4.92-5.55,4.92-3.21,0-5.86-1.64-8.07-4.41l-3.78,3.28ZM229.25,412.99c5.23,0,8.57,3.78,8.76,8.38h-18.85c1.26-5.48,4.92-8.38,10.09-8.38M244.13,436.19l-3.97-3.09c-2.08,2.84-5.48,4.73-9.52,4.73-7.12,0-11.91-5.11-11.91-12.11v-.13h24.33c.19-.88.38-2.14.38-3.4,0-7.94-5.61-13.8-14.25-13.8-9.83,0-16.01,7.5-16.01,17.15s6.62,17.15,17.33,17.15c5.93,0,10.65-2.52,13.62-6.49M161.42,441.42h5.93v-35.99l12.86,20.87h4.54l12.86-20.87v35.99h5.93v-44.13h-7.63l-13.43,22-13.43-22h-7.63v44.13Z"/>
  <path id="Lettrage" d="M846.61,273.22c3.23-19.87,16.15-31.05,36.77-31.05,19.13,0,29.81,12.17,31.3,31.05h-68.07ZM889.84,362.66c23.1,0,42.73-6.71,55.9-16.4v-34.53c-12.67,10.68-29.81,20.62-51.43,20.62-29.32,0-43.97-12.17-47.7-34.78h103.6c.99-4.22,1.74-9.69,1.74-16.65,0-40.74-26.09-67.33-68.07-67.33-45.96,0-74.78,30.81-74.78,74.53,0,49.19,33.04,74.53,80.74,74.53ZM683.88,273.22c3.23-19.87,16.15-31.05,36.77-31.05,19.13,0,29.81,12.17,31.3,31.05h-68.07ZM727.11,362.66c23.1,0,42.73-6.71,55.9-16.4v-34.53c-12.67,10.68-29.81,20.62-51.43,20.62-29.32,0-43.97-12.17-47.7-34.78h103.6c.99-4.22,1.74-9.69,1.74-16.65,0-40.74-26.09-67.33-68.07-67.33-45.96,0-74.78,30.81-74.78,74.53,0,49.19,33.04,74.53,80.74,74.53ZM558.42,362.66c39,0,66.33-15.65,66.33-48.69s-29.56-38.26-62.61-43.23c-25.09-3.73-37.27-4.97-37.27-14.41s11.43-13.17,30.31-13.17c20.87,0,44.22,7.2,63.6,18.88v-33.29c-17.39-9.44-39.5-15.15-63.1-15.15-37.51,0-65.59,14.41-65.59,44.22,0,34.04,32.05,41.49,62.36,45.71,22.61,3.23,36.27,3.97,36.27,15.4,0,10.19-10.93,13.42-30.81,13.42-26.33,0-50.43-8.94-68.57-26.09v37.51c14.91,10.68,41.74,18.88,69.06,18.88ZM327.88,360.17h36.77v-80.99c.5-22.61,11.43-36.52,30.56-36.52,20.87,0,27.58,13.42,27.58,33.04v84.47h36.77v-89.93c0-38.01-22.11-56.64-52.67-56.64-17.39,0-32.55,6.46-42.23,20.37v-17.89h-36.77v144.09ZM161.42,360.17h137.88v-28.57h-49.44v-141.61h49.44v-28.57h-137.88v28.57h49.44v141.61h-49.44v28.57Z"/>
  <g id="Emblème">
    <rect class="st1" x="1082.37" y="136.08" width="36.77" height="124.96"/>
    <rect class="st0" x="1032.44" y="184.03" width="36.77" height="77.01"/>
    <polygon class="st2" points="982.5 298.56 985.24 298.56 1019.27 261.05 1019.27 161.42 982.5 161.42 982.5 298.56"/>
  </g>
</svg>